solid OpenSCAD_Model
  facet normal 1 0 0
    outer loop
      vertex 20 0 6.5
      vertex 20 -2 6.5
      vertex 20 0 0
    endloop
  endfacet
  facet normal 1 -0 0
    outer loop
      vertex 20 0 0
      vertex 20 19 -2
      vertex 20 19 0
    endloop
  endfacet
  facet normal 1 0 0
    outer loop
      vertex 20 0 0
      vertex 20 -2 -2
      vertex 20 19 -2
    endloop
  endfacet
  facet normal 1 0 0
    outer loop
      vertex 20 -2 -2
      vertex 20 0 0
      vertex 20 -2 6.5
    endloop
  endfacet
  facet normal -0 0 1
    outer loop
      vertex 0 0 6.5
      vertex 20 -2 6.5
      vertex 20 0 6.5
    endloop
  endfacet
  facet normal 0 0 1
    outer loop
      vertex -2 -2 6.5
      vertex 0 0 6.5
      vertex -2 0 6.5
    endloop
  endfacet
  facet normal 0 0 1
    outer loop
      vertex 0 0 6.5
      vertex -2 -2 6.5
      vertex 20 -2 6.5
    endloop
  endfacet
  facet normal -1 0 0
    outer loop
      vertex -2 19 0
      vertex -2 0 6.5
      vertex -2 19 17.5
    endloop
  endfacet
  facet normal -1 0 0
    outer loop
      vertex -2 -2 0
      vertex -2 0 6.5
      vertex -2 19 0
    endloop
  endfacet
  facet normal -1 -0 0
    outer loop
      vertex -2 0 6.5
      vertex -2 -2 0
      vertex -2 -2 6.5
    endloop
  endfacet
  facet normal -1 -0 0
    outer loop
      vertex -2 19 17.5
      vertex -2 0 6.5
      vertex -2 0 17.5
    endloop
  endfacet
  facet normal 0 1 0
    outer loop
      vertex 0 19 -1.98904
      vertex 0 19 0
      vertex 20 19 0
    endloop
  endfacet
  facet normal 0 1 0
    outer loop
      vertex -0.209057 19 -1.98904
      vertex 0 19 0
      vertex 0 19 -1.98904
    endloop
  endfacet
  facet normal 0 1 0
    outer loop
      vertex 0 19 0
      vertex -1.9563 19 -0.415823
      vertex -2 19 0
    endloop
  endfacet
  facet normal 0 1 0
    outer loop
      vertex 0 19 0
      vertex -1.82709 19 -0.813473
      vertex -1.9563 19 -0.415823
    endloop
  endfacet
  facet normal 0 1 0
    outer loop
      vertex 0 19 0
      vertex -1.61803 19 -1.17557
      vertex -1.82709 19 -0.813473
    endloop
  endfacet
  facet normal 0 1 0
    outer loop
      vertex 0 19 0
      vertex -1.33826 19 -1.48629
      vertex -1.61803 19 -1.17557
    endloop
  endfacet
  facet normal 0 1 0
    outer loop
      vertex 0 19 0
      vertex -1 19 -1.73205
      vertex -1.33826 19 -1.48629
    endloop
  endfacet
  facet normal 0 1 0
    outer loop
      vertex 0 19 0
      vertex -0.618033 19 -1.90211
      vertex -1 19 -1.73205
    endloop
  endfacet
  facet normal 0 1 -0
    outer loop
      vertex 20 19 -2
      vertex 0 19 -1.98904
      vertex 20 19 0
    endloop
  endfacet
  facet normal 0 1 0
    outer loop
      vertex 0 19 -1.98904
      vertex 20 19 -2
      vertex 0 19 -2
    endloop
  endfacet
  facet normal 0 1 -0
    outer loop
      vertex 0 19 6.5
      vertex -2 19 17.5
      vertex 0 19 17.5
    endloop
  endfacet
  facet normal 0 1 0
    outer loop
      vertex -2 19 0
      vertex 0 19 6.5
      vertex 0 19 0
    endloop
  endfacet
  facet normal 0 1 0
    outer loop
      vertex 0 19 6.5
      vertex -2 19 0
      vertex -2 19 17.5
    endloop
  endfacet
  facet normal 0 1 0
    outer loop
      vertex 0 19 0
      vertex -0.209057 19 -1.98904
      vertex -0.618033 19 -1.90211
    endloop
  endfacet
  facet normal 0 -1 0
    outer loop
      vertex 0 -2 -1.98904
      vertex -2 -2 6.5
      vertex -2 -2 0
    endloop
  endfacet
  facet normal 0 -1 0
    outer loop
      vertex 0 -2 -1.98904
      vertex -2 -2 0
      vertex -1.9563 -2 -0.415823
    endloop
  endfacet
  facet normal 0 -1 0
    outer loop
      vertex 0 -2 -1.98904
      vertex -1.9563 -2 -0.415823
      vertex -1.82709 -2 -0.813473
    endloop
  endfacet
  facet normal 0 -1 0
    outer loop
      vertex 0 -2 -1.98904
      vertex -1.82709 -2 -0.813473
      vertex -1.61803 -2 -1.17557
    endloop
  endfacet
  facet normal 0 -1 0
    outer loop
      vertex 0 -2 -1.98904
      vertex -1.61803 -2 -1.17557
      vertex -1.33826 -2 -1.48629
    endloop
  endfacet
  facet normal 0 -1 0
    outer loop
      vertex 0 -2 -1.98904
      vertex -1.33826 -2 -1.48629
      vertex -1 -2 -1.73205
    endloop
  endfacet
  facet normal 0 -1 0
    outer loop
      vertex 0 -2 -1.98904
      vertex -1 -2 -1.73205
      vertex -0.618033 -2 -1.90211
    endloop
  endfacet
  facet normal 0 -1 0
    outer loop
      vertex 0 -2 -1.98904
      vertex -0.618033 -2 -1.90211
      vertex -0.209057 -2 -1.98904
    endloop
  endfacet
  facet normal 0 -1 0
    outer loop
      vertex -2 -2 6.5
      vertex 0 -2 -1.98904
      vertex 20 -2 6.5
    endloop
  endfacet
  facet normal 0 -1 0
    outer loop
      vertex 20 -2 -2
      vertex 0 -2 -1.98904
      vertex 0 -2 -2
    endloop
  endfacet
  facet normal 0 -1 0
    outer loop
      vertex 0 -2 -1.98904
      vertex 20 -2 -2
      vertex 20 -2 6.5
    endloop
  endfacet
  facet normal 0 0 -1
    outer loop
      vertex 0 -2 -2
      vertex 20 19 -2
      vertex 20 -2 -2
    endloop
  endfacet
  facet normal -0 0 -1
    outer loop
      vertex 20 19 -2
      vertex 0 -2 -2
      vertex 0 19 -2
    endloop
  endfacet
  facet normal -1 0 0
    outer loop
      vertex 0 -2 -2
      vertex 0 19 -1.98904
      vertex 0 19 -2
    endloop
  endfacet
  facet normal -1 -0 0
    outer loop
      vertex 0 19 -1.98904
      vertex 0 -2 -2
      vertex 0 -2 -1.98904
    endloop
  endfacet
  facet normal 0 0 -1
    outer loop
      vertex -0.209057 -2 -1.98904
      vertex 0 19 -1.98904
      vertex 0 -2 -1.98904
    endloop
  endfacet
  facet normal -0 0 -1
    outer loop
      vertex 0 19 -1.98904
      vertex -0.209057 -2 -1.98904
      vertex -0.209057 19 -1.98904
    endloop
  endfacet
  facet normal -0.20791 0 -0.978148
    outer loop
      vertex -0.618033 -2 -1.90211
      vertex -0.209057 19 -1.98904
      vertex -0.209057 -2 -1.98904
    endloop
  endfacet
  facet normal -0.20791 0 -0.978148
    outer loop
      vertex -0.209057 19 -1.98904
      vertex -0.618033 -2 -1.90211
      vertex -0.618033 19 -1.90211
    endloop
  endfacet
  facet normal -0.743149 0 -0.669126
    outer loop
      vertex -1.33826 -2 -1.48629
      vertex -1.61803 19 -1.17557
      vertex -1.33826 19 -1.48629
    endloop
  endfacet
  facet normal -0.743149 -0 -0.669126
    outer loop
      vertex -1.61803 19 -1.17557
      vertex -1.33826 -2 -1.48629
      vertex -1.61803 -2 -1.17557
    endloop
  endfacet
  facet normal -0.994523 0 -0.104517
    outer loop
      vertex -1.9563 -2 -0.415823
      vertex -2 19 0
      vertex -1.9563 19 -0.415823
    endloop
  endfacet
  facet normal -0.994523 -0 -0.104517
    outer loop
      vertex -2 19 0
      vertex -1.9563 -2 -0.415823
      vertex -2 -2 0
    endloop
  endfacet
  facet normal -0.406731 0 -0.913548
    outer loop
      vertex -1 -2 -1.73205
      vertex -0.618033 19 -1.90211
      vertex -0.618033 -2 -1.90211
    endloop
  endfacet
  facet normal -0.406731 0 -0.913548
    outer loop
      vertex -0.618033 19 -1.90211
      vertex -1 -2 -1.73205
      vertex -1 19 -1.73205
    endloop
  endfacet
  facet normal -0.951053 0 -0.309029
    outer loop
      vertex -1.82709 -2 -0.813473
      vertex -1.9563 19 -0.415823
      vertex -1.82709 19 -0.813473
    endloop
  endfacet
  facet normal -0.951053 -0 -0.309029
    outer loop
      vertex -1.9563 19 -0.415823
      vertex -1.82709 -2 -0.813473
      vertex -1.9563 -2 -0.415823
    endloop
  endfacet
  facet normal -0.587785 0 -0.809017
    outer loop
      vertex -1.33826 -2 -1.48629
      vertex -1 19 -1.73205
      vertex -1 -2 -1.73205
    endloop
  endfacet
  facet normal -0.587785 0 -0.809017
    outer loop
      vertex -1 19 -1.73205
      vertex -1.33826 -2 -1.48629
      vertex -1.33826 19 -1.48629
    endloop
  endfacet
  facet normal -0.866022 0 -0.500006
    outer loop
      vertex -1.61803 -2 -1.17557
      vertex -1.82709 19 -0.813473
      vertex -1.61803 19 -1.17557
    endloop
  endfacet
  facet normal -0.866022 -0 -0.500006
    outer loop
      vertex -1.82709 19 -0.813473
      vertex -1.61803 -2 -1.17557
      vertex -1.82709 -2 -0.813473
    endloop
  endfacet
  facet normal -0 0 1
    outer loop
      vertex 0 19 0
      vertex 20 0 0
      vertex 20 19 0
    endloop
  endfacet
  facet normal 0 0 1
    outer loop
      vertex 20 0 0
      vertex 0 19 0
      vertex 0 0 0
    endloop
  endfacet
  facet normal 1 -0 0
    outer loop
      vertex 0 0 6.5
      vertex 0 19 0
      vertex 0 19 6.5
    endloop
  endfacet
  facet normal 1 0 0
    outer loop
      vertex 0 19 0
      vertex 0 0 6.5
      vertex 0 0 0
    endloop
  endfacet
  facet normal 0 1 -0
    outer loop
      vertex 20 0 0
      vertex 0 0 6.5
      vertex 20 0 6.5
    endloop
  endfacet
  facet normal 0 1 0
    outer loop
      vertex 0 0 6.5
      vertex 20 0 0
      vertex 0 0 0
    endloop
  endfacet
  facet normal 1 0 0
    outer loop
      vertex 0 10.5 13
      vertex 0 19 17.5
      vertex 0 10.5 17
    endloop
  endfacet
  facet normal 1 0 0
    outer loop
      vertex 0 19 17.5
      vertex 0 9 17
      vertex 0 10.5 17
    endloop
  endfacet
  facet normal 1 0 0
    outer loop
      vertex 0 9 17
      vertex 0 0 17.5
      vertex 0 9 13
    endloop
  endfacet
  facet normal 1 -0 0
    outer loop
      vertex 0 0 17.5
      vertex 0 9 17
      vertex 0 19 17.5
    endloop
  endfacet
  facet normal 1 0 0
    outer loop
      vertex 0 19 17.5
      vertex 0 10.5 13
      vertex 0 19 6.5
    endloop
  endfacet
  facet normal 1 -0 0
    outer loop
      vertex 0 9 13
      vertex 0 19 6.5
      vertex 0 10.5 13
    endloop
  endfacet
  facet normal 1 0 0
    outer loop
      vertex 0 0 6.5
      vertex 0 9 13
      vertex 0 0 17.5
    endloop
  endfacet
  facet normal 1 0 0
    outer loop
      vertex 0 9 13
      vertex 0 0 6.5
      vertex 0 19 6.5
    endloop
  endfacet
  facet normal -0 0 1
    outer loop
      vertex -2 19 17.5
      vertex 0 0 17.5
      vertex 0 19 17.5
    endloop
  endfacet
  facet normal 0 0 1
    outer loop
      vertex 0 0 17.5
      vertex -2 19 17.5
      vertex -2 0 17.5
    endloop
  endfacet
  facet normal 0 -1 0
    outer loop
      vertex -2 0 6.5
      vertex 0 0 17.5
      vertex -2 0 17.5
    endloop
  endfacet
  facet normal 0 -1 -0
    outer loop
      vertex 0 0 17.5
      vertex -2 0 6.5
      vertex 0 0 6.5
    endloop
  endfacet
  facet normal 1 -0 0
    outer loop
      vertex 1.5 9 17
      vertex 1.5 10.5 13
      vertex 1.5 10.5 17
    endloop
  endfacet
  facet normal 1 0 0
    outer loop
      vertex 1.5 10.5 13
      vertex 1.5 9 17
      vertex 1.5 9 13
    endloop
  endfacet
  facet normal -0 0 1
    outer loop
      vertex 0 10.5 17
      vertex 1.5 9 17
      vertex 1.5 10.5 17
    endloop
  endfacet
  facet normal 0 0 1
    outer loop
      vertex 1.5 9 17
      vertex 0 10.5 17
      vertex 0 9 17
    endloop
  endfacet
  facet normal 0 0 -1
    outer loop
      vertex 0 9 13
      vertex 1.5 10.5 13
      vertex 1.5 9 13
    endloop
  endfacet
  facet normal -0 0 -1
    outer loop
      vertex 1.5 10.5 13
      vertex 0 9 13
      vertex 0 10.5 13
    endloop
  endfacet
  facet normal 0 1 -0
    outer loop
      vertex 1.5 10.5 13
      vertex 0 10.5 17
      vertex 1.5 10.5 17
    endloop
  endfacet
  facet normal 0 1 0
    outer loop
      vertex 0 10.5 17
      vertex 1.5 10.5 13
      vertex 0 10.5 13
    endloop
  endfacet
  facet normal 0 -1 0
    outer loop
      vertex 0 9 13
      vertex 1.5 9 17
      vertex 0 9 17
    endloop
  endfacet
  facet normal 0 -1 -0
    outer loop
      vertex 1.5 9 17
      vertex 0 9 13
      vertex 1.5 9 13
    endloop
  endfacet
endsolid OpenSCAD_Model
